<svg width="48" height="48" viewBox="0 0 48 48" fill="none" xmlns="http://www.w3.org/2000/svg">
<!-- Odontologia de Conforto: Coração + dente -->
<path fill-rule="evenodd" clip-rule="evenodd" d="M24 6.5C21.5 3.5 17.5 2 13.5 3C8.2 4.4 4.5 9.2 4.5 14.5C4.5 19 6.5 22.5 10 25.5L24 38L38 25.5C41.5 22.5 43.5 19 43.5 14.5C43.5 9.2 39.8 4.4 34.5 3C30.5 2 26.5 3.5 24 6.5Z" fill="#1E84B5"/>
<path fill-rule="evenodd" clip-rule="evenodd" d="M24 10.5C22.5 8.5 20 7.5 17.5 8C14.2 8.8 12 11.8 12 14.5C12 16.9 13 18.9 15 20.5L24 28L33 20.5C35 18.9 36 16.9 36 14.5C36 11.8 33.8 8.8 30.5 8C28 7.5 25.5 8.5 24 10.5Z" fill="#0E384C"/>
<path fill-rule="evenodd" clip-rule="evenodd" d="M20 38H28C28 38 27 43 24 46C21 43 20 38 20 38Z" fill="#1E84B5"/>
</svg>
