<svg width="48" height="48" viewBox="0 0 48 48" fill="none" xmlns="http://www.w3.org/2000/svg">
<!-- Odontopediatria: Criança com dente -->
<path fill-rule="evenodd" clip-rule="evenodd" d="M24 2C19.582 2 16 5.582 16 10C16 12.48 17.09 14.7 18.82 16.22C15.46 17.62 13 20.9 13 24.75V27C13 27.828 13.672 28.5 14.5 28.5H33.5C34.328 28.5 35 27.828 35 27V24.75C35 20.9 32.54 17.62 29.18 16.22C30.91 14.7 32 12.48 32 10C32 5.582 28.418 2 24 2ZM24 5C26.761 5 29 7.239 29 10C29 12.761 26.761 15 24 15C21.239 15 19 12.761 19 10C19 7.239 21.239 5 24 5Z" fill="#1E84B5"/>
<path fill-rule="evenodd" clip-rule="evenodd" d="M16 33C14.343 33 13 34.343 13 36V44C13 45.657 14.343 47 16 47H32C33.657 47 35 45.657 35 44V36C35 34.343 33.657 33 32 33H16ZM20 37C20 36.448 20.448 36 21 36H27C27.552 36 28 36.448 28 37C28 37.552 27.552 38 27 38H21C20.448 38 20 37.552 20 37ZM21 40H27C27.552 40 28 40.448 28 41C28 41.552 27.552 42 27 42H21C20.448 42 20 41.552 20 41C20 40.448 20.448 40 21 40Z" fill="#1E84B5"/>
<path fill-rule="evenodd" clip-rule="evenodd" d="M24 2C19.582 2 16 5.582 16 10C16 12.48 17.09 14.7 18.82 16.22C15.46 17.62 13 20.9 13 24.75V27C13 27.828 13.672 28.5 14.5 28.5H19V24.75C19 22.265 20.595 20.15 22.825 19.35L24 19L25.175 19.35C27.405 20.15 29 22.265 29 24.75V28.5H33.5C34.328 28.5 35 27.828 35 27V24.75C35 20.9 32.54 17.62 29.18 16.22C30.91 14.7 32 12.48 32 10C32 5.582 28.418 2 24 2Z" fill="#0E384C"/>
</svg>
