<svg width="48" height="48" viewBox="0 0 48 48" fill="none" xmlns="http://www.w3.org/2000/svg">
<!-- Cuidado Oral Avançado: Microscópio -->
<path fill-rule="evenodd" clip-rule="evenodd" d="M20 2C18.343 2 17 3.343 17 5V7H15C13.343 7 12 8.343 12 10V24C12 25.657 13.343 27 15 27H22V29H14C13.448 29 13 29.448 13 30C13 30.552 13.448 31 14 31H22V33H10C9.448 33 9 33.448 9 34C9 34.552 9.448 35 10 35H38C38.552 35 39 34.552 39 34C39 33.448 38.552 33 38 33H26V31H34C34.552 31 35 30.552 35 30C35 29.448 34.552 29 34 29H26V27H33C34.657 27 36 25.657 36 24V10C36 8.343 34.657 7 33 7H31V5C31 3.343 29.657 2 28 2H20ZM20 5H28V7H20V5ZM15 10H33V24H15V10Z" fill="#1E84B5"/>
<path fill-rule="evenodd" clip-rule="evenodd" d="M24 12C21.238 12 19 14.238 19 17C19 19.762 21.238 22 24 22C26.762 22 29 19.762 29 17C29 14.238 26.762 12 24 12ZM24 15C25.105 15 26 15.895 26 17C26 18.105 25.105 19 24 19C22.895 19 22 18.105 22 17C22 15.895 22.895 15 24 15Z" fill="#0E384C"/>
<path d="M17 38C17 37.448 17.448 37 18 37H30C30.552 37 31 37.448 31 38V44C31 45.657 29.657 47 28 47H20C18.343 47 17 45.657 17 44V38Z" fill="#1E84B5"/>
</svg>
